<svg width="1835" height="720" viewBox="0 0 1835 720" fill="none" xmlns="http://www.w3.org/2000/svg">
<path d="M1799.68 404.206C1766.91 404.206 1741.44 395.3 1723.27 377.487C1705.45 359.318 1696.55 333.846 1696.55 301.07V172.819H1646.32V110.296H1651.66C1665.91 110.296 1676.95 106.556 1684.79 99.0745C1692.63 91.5931 1696.55 80.7274 1696.55 66.4772V44.0332H1766.55V110.296H1833.35V172.819H1766.55V297.33C1766.55 306.949 1768.16 315.143 1771.36 321.911C1774.92 328.68 1780.27 333.846 1787.39 337.408C1794.87 340.971 1804.32 342.752 1815.72 342.752C1818.21 342.752 1821.06 342.574 1824.27 342.218C1827.83 341.862 1831.21 341.505 1834.42 341.149V401C1829.43 401.712 1823.73 402.425 1817.32 403.137C1810.91 403.85 1805.03 404.206 1799.68 404.206Z" fill="#214D9F"/>
<path d="M1799.68 404.206C1766.91 404.206 1741.44 395.3 1723.27 377.487C1705.45 359.318 1696.55 333.846 1696.55 301.07V172.819H1646.32V110.296H1651.66C1665.91 110.296 1676.95 106.556 1684.79 99.0745C1692.63 91.5931 1696.55 80.7274 1696.55 66.4772V44.0332H1766.55V110.296H1833.35V172.819H1766.55V297.33C1766.55 306.949 1768.16 315.143 1771.36 321.911C1774.92 328.68 1780.27 333.846 1787.39 337.408C1794.87 340.971 1804.32 342.752 1815.72 342.752C1818.21 342.752 1821.06 342.574 1824.27 342.218C1827.83 341.862 1831.21 341.505 1834.42 341.149V401C1829.43 401.712 1823.73 402.425 1817.32 403.137C1810.91 403.85 1805.03 404.206 1799.68 404.206Z" fill="url(#paint0_radial_17140_5964)"/>
<path d="M1459.46 400.999V110.296H1525.19V174.956L1519.84 165.337C1526.61 143.606 1537.12 128.465 1551.37 119.915C1565.98 111.365 1583.43 107.09 1603.74 107.09H1620.84V169.078H1595.72C1575.77 169.078 1559.74 175.312 1547.63 187.781C1535.52 199.894 1529.46 216.994 1529.46 239.082V400.999H1459.46Z" fill="#214D9F"/>
<path d="M1459.46 400.999V110.296H1525.19V174.956L1519.84 165.337C1526.61 143.606 1537.12 128.465 1551.37 119.915C1565.98 111.365 1583.43 107.09 1603.74 107.09H1620.84V169.078H1595.72C1575.77 169.078 1559.74 175.312 1547.63 187.781C1535.52 199.894 1529.46 216.994 1529.46 239.082V400.999H1459.46Z" fill="url(#paint1_radial_17140_5964)"/>
<path d="M1237.65 407.413C1217.34 407.413 1199.71 404.029 1184.74 397.26C1169.78 390.491 1158.2 380.872 1150.01 368.403C1141.82 355.578 1137.72 340.794 1137.72 324.05C1137.72 308.018 1141.28 293.768 1148.41 281.299C1155.53 268.474 1166.58 257.787 1181.54 249.236C1196.5 240.686 1215.38 234.63 1238.18 231.067L1333.3 215.57V269.009L1251.54 282.902C1237.65 285.396 1227.32 289.849 1220.55 296.262C1213.78 302.675 1210.39 311.047 1210.39 321.378C1210.39 331.353 1214.14 339.369 1221.62 345.425C1229.45 351.125 1239.07 353.975 1250.47 353.975C1265.08 353.975 1277.9 350.947 1288.95 344.891C1300.35 338.478 1309.08 329.75 1315.13 318.706C1321.55 307.662 1324.75 295.549 1324.75 282.368V207.555C1324.75 195.086 1319.76 184.754 1309.79 176.561C1300.17 168.011 1287.35 163.735 1271.31 163.735C1256.35 163.735 1242.99 167.832 1231.24 176.026C1219.84 183.864 1211.46 194.373 1206.12 207.555L1148.94 179.767C1154.64 164.448 1163.55 151.267 1175.66 140.223C1188.13 128.823 1202.74 119.916 1219.48 113.504C1236.22 107.091 1254.39 103.885 1273.99 103.885C1297.85 103.885 1318.87 108.338 1337.04 117.244C1355.21 125.794 1369.28 137.907 1379.26 153.582C1389.59 168.901 1394.76 186.892 1394.76 207.555V401.001H1328.49V351.303L1343.46 350.234C1335.97 362.703 1327.07 373.213 1316.74 381.763C1306.41 389.957 1294.65 396.369 1281.47 401.001C1268.29 405.276 1253.68 407.413 1237.65 407.413Z" fill="#214D9F"/>
<path d="M1237.65 407.413C1217.34 407.413 1199.71 404.029 1184.74 397.26C1169.78 390.491 1158.2 380.872 1150.01 368.403C1141.82 355.578 1137.72 340.794 1137.72 324.05C1137.72 308.018 1141.28 293.768 1148.41 281.299C1155.53 268.474 1166.58 257.787 1181.54 249.236C1196.5 240.686 1215.38 234.63 1238.18 231.067L1333.3 215.57V269.009L1251.54 282.902C1237.65 285.396 1227.32 289.849 1220.55 296.262C1213.78 302.675 1210.39 311.047 1210.39 321.378C1210.39 331.353 1214.14 339.369 1221.62 345.425C1229.45 351.125 1239.07 353.975 1250.47 353.975C1265.08 353.975 1277.9 350.947 1288.95 344.891C1300.35 338.478 1309.08 329.75 1315.13 318.706C1321.55 307.662 1324.75 295.549 1324.75 282.368V207.555C1324.75 195.086 1319.76 184.754 1309.79 176.561C1300.17 168.011 1287.35 163.735 1271.31 163.735C1256.35 163.735 1242.99 167.832 1231.24 176.026C1219.84 183.864 1211.46 194.373 1206.12 207.555L1148.94 179.767C1154.64 164.448 1163.55 151.267 1175.66 140.223C1188.13 128.823 1202.74 119.916 1219.48 113.504C1236.22 107.091 1254.39 103.885 1273.99 103.885C1297.85 103.885 1318.87 108.338 1337.04 117.244C1355.21 125.794 1369.28 137.907 1379.26 153.582C1389.59 168.901 1394.76 186.892 1394.76 207.555V401.001H1328.49V351.303L1343.46 350.234C1335.97 362.703 1327.07 373.213 1316.74 381.763C1306.41 389.957 1294.65 396.369 1281.47 401.001C1268.29 405.276 1253.68 407.413 1237.65 407.413Z" fill="url(#paint2_radial_17140_5964)"/>
<path d="M797.883 401.001V2.88672H870.559V210.227L850.787 203.28L1020.19 2.88672H1111.56L952.853 190.989L957.128 139.688L1116.37 401.001H1030.87L923.997 225.724L870.559 289.315V401.001H797.883Z" fill="#214D9F"/>
<path d="M797.883 401.001V2.88672H870.559V210.227L850.787 203.28L1020.19 2.88672H1111.56L952.853 190.989L957.128 139.688L1116.37 401.001H1030.87L923.997 225.724L870.559 289.315V401.001H797.883Z" fill="url(#paint3_radial_17140_5964)"/>
<path d="M475.234 401.001V110.297H540.963V167.476L535.619 157.323C542.388 139.866 553.432 126.685 568.751 117.779C584.426 108.516 602.595 103.885 623.258 103.885C644.633 103.885 663.515 108.516 679.902 117.779C696.646 127.041 709.65 140.045 718.912 156.788C728.175 173.176 732.806 192.236 732.806 213.967V401.001H662.802V230.533C662.802 217.708 660.308 206.664 655.321 197.401C650.333 188.139 643.386 181.014 634.48 176.026C625.93 170.682 615.777 168.01 604.02 168.01C592.62 168.01 582.467 170.682 573.561 176.026C564.654 181.014 557.707 188.139 552.72 197.401C547.732 206.664 545.238 217.708 545.238 230.533V401.001H475.234Z" fill="#214D9F"/>
<path d="M475.234 401.001V110.297H540.963V167.476L535.619 157.323C542.388 139.866 553.432 126.685 568.751 117.779C584.426 108.516 602.595 103.885 623.258 103.885C644.633 103.885 663.515 108.516 679.902 117.779C696.646 127.041 709.65 140.045 718.912 156.788C728.175 173.176 732.806 192.236 732.806 213.967V401.001H662.802V230.533C662.802 217.708 660.308 206.664 655.321 197.401C650.333 188.139 643.386 181.014 634.48 176.026C625.93 170.682 615.777 168.01 604.02 168.01C592.62 168.01 582.467 170.682 573.561 176.026C564.654 181.014 557.707 188.139 552.72 197.401C547.732 206.664 545.238 217.708 545.238 230.533V401.001H475.234Z" fill="url(#paint4_radial_17140_5964)"/>
<path d="M340.598 401.001V110.297H410.602V401.001H340.598ZM340.598 77.7001V2.88672H410.602V77.7001H340.598Z" fill="#214D9F"/>
<path d="M340.598 401.001V110.297H410.602V401.001H340.598ZM340.598 77.7001V2.88672H410.602V77.7001H340.598Z" fill="url(#paint5_radial_17140_5964)"/>
<path d="M639.13 698.444C636.767 698.444 634.458 698.229 632.202 697.8C629.947 697.478 627.906 696.833 626.08 695.866V678.306C627.476 678.628 629.141 678.95 631.074 679.273C633.115 679.595 634.995 679.756 636.713 679.756C641.546 679.756 645.037 678.628 647.185 676.373C649.44 674.225 651.427 671.325 653.146 667.673L658.946 654.14L658.623 671.862L620.441 575.359H643.157L669.901 646.568H661.846L688.428 575.359H711.305L673.123 671.862C670.868 677.447 668.129 682.226 664.907 686.2C661.684 690.174 657.925 693.181 653.629 695.222C649.44 697.37 644.607 698.444 639.13 698.444Z" fill="#214D9F"/>
<path d="M569.677 664.933C563.34 664.933 557.486 663.698 552.116 661.228C546.853 658.65 542.664 654.998 539.55 650.273L541.644 646.084V663H521.828V541.043H542.933V592.758L539.711 588.408C542.718 583.682 546.8 580.031 551.955 577.453C557.11 574.768 563.071 573.425 569.838 573.425C578.108 573.425 585.572 575.466 592.231 579.547C598.89 583.629 604.153 589.106 608.02 595.98C611.994 602.854 613.981 610.587 613.981 619.179C613.981 627.664 612.047 635.397 608.181 642.378C604.314 649.36 599.051 654.891 592.392 658.972C585.733 662.946 578.161 664.933 569.677 664.933ZM567.26 645.601C572.093 645.601 576.389 644.473 580.148 642.217C583.908 639.962 586.807 636.847 588.848 632.873C590.996 628.899 592.07 624.335 592.07 619.179C592.07 614.024 590.996 609.513 588.848 605.646C586.807 601.672 583.908 598.558 580.148 596.302C576.389 593.939 572.093 592.758 567.26 592.758C562.642 592.758 558.453 593.886 554.694 596.141C551.042 598.397 548.142 601.565 545.994 605.646C543.953 609.62 542.933 614.131 542.933 619.179C542.933 624.335 543.953 628.899 545.994 632.873C548.142 636.847 551.042 639.962 554.694 642.217C558.453 644.473 562.642 645.601 567.26 645.601Z" fill="#214D9F"/>
<mask id="mask0_17140_5964" style="mask-type:luminance" maskUnits="userSpaceOnUse" x="781" y="519" width="1054" height="201">
<path d="M1834.76 519.617H781.305V719.434H1834.76V519.617Z" fill="white"/>
</mask>
<g mask="url(#mask0_17140_5964)">
<path d="M1818.7 662.169C1818.71 673.966 1814.04 685.286 1805.72 693.644C1797.4 702.003 1786.09 706.718 1774.3 706.753L832.161 719.479C826.315 719.485 820.524 718.338 815.12 716.105C809.717 713.872 804.807 710.595 800.67 706.463C796.534 702.331 793.252 697.424 791.014 692.023C788.775 686.621 787.622 680.832 787.622 674.985L781.305 564.156C781.293 558.312 782.434 552.522 784.662 547.119C786.891 541.716 790.163 536.805 794.292 532.668C798.42 528.531 803.324 525.249 808.723 523.009C814.122 520.77 819.909 519.617 825.754 519.617L1790.27 527.65C1802.07 527.673 1813.37 532.377 1821.7 540.727C1830.04 549.077 1834.72 560.392 1834.72 572.189L1818.7 662.169Z" fill="#2A5DA8"/>
<path d="M1041.76 587.709V637.347C1041.77 637.903 1041.9 638.45 1042.13 638.954C1042.36 639.459 1042.7 639.91 1043.11 640.281C1043.97 641.138 1045.01 640.867 1046.23 640.867H1055.84C1057.01 640.867 1058.05 641.138 1058.91 640.281C1059.31 639.907 1059.62 639.452 1059.83 638.946C1060.04 638.44 1060.14 637.895 1060.13 637.347V634.008C1060.13 634.008 1060.13 631.301 1063.69 631.075H1079.89C1079.89 631.075 1084.13 631.436 1084.13 634.504V649.17C1084.16 650.203 1083.97 651.231 1083.59 652.192C1083.21 653.154 1082.65 654.029 1081.92 654.766C1080.5 656.131 1078.61 656.892 1076.64 656.887H1025.47C1023.49 656.889 1021.58 656.13 1020.14 654.766C1019.41 654.073 1018.83 653.233 1018.44 652.299C1018.05 651.366 1017.86 650.361 1017.89 649.351V587.709C1017.89 587.709 1017.08 583.512 1021.9 583.512H1037.74C1038.29 583.492 1038.84 583.588 1039.35 583.793C1039.86 583.999 1040.33 584.31 1040.71 584.706C1041.09 585.101 1041.39 585.573 1041.58 586.09C1041.76 586.608 1041.84 587.159 1041.8 587.709" fill="white"/>
<path d="M928.07 583.375H1000.27C1000.27 583.375 1005.91 583.691 1006.54 587.436V595.424C1006.54 595.424 1006 598.853 1000.99 599.169H953.34C952.488 599.204 951.672 599.526 951.025 600.083C950.377 600.64 949.938 601.399 949.775 602.238V608.871C949.949 609.822 950.459 610.68 951.214 611.285C951.968 611.89 952.915 612.203 953.882 612.165H1000.5C1002.25 612.445 1003.84 613.338 1004.99 614.686C1006.14 616.035 1006.77 617.749 1006.77 619.521V650.161C1006.61 651.866 1005.86 653.463 1004.66 654.687C1003.46 655.91 1001.88 656.686 1000.18 656.885H926.4C926.4 656.885 921.888 656.388 921.211 652.869V645.017C921.412 643.767 922.087 642.643 923.095 641.878C924.104 641.113 925.368 640.766 926.626 640.91H974.64C975.509 640.891 976.345 640.57 977.004 640.002C977.663 639.434 978.103 638.654 978.25 637.797V631.659C978.101 630.762 977.655 629.942 976.984 629.328C976.313 628.714 975.456 628.344 974.549 628.275H928.386C926.58 628.093 924.889 627.301 923.593 626.03C922.297 624.758 921.473 623.083 921.256 621.281V590.595C921.343 588.776 922.078 587.049 923.327 585.724C924.577 584.4 926.259 583.567 928.07 583.375Z" fill="white"/>
<path d="M831.625 583.51H904.232C904.232 583.51 909.782 583.826 910.369 587.571V595.558C910.006 596.711 909.265 597.708 908.266 598.387C907.267 599.067 906.068 599.389 904.863 599.304H857.03C856.176 599.327 855.354 599.638 854.699 600.187C854.043 600.736 853.593 601.49 853.42 602.327V609.006C853.592 609.949 854.096 610.8 854.841 611.404C855.586 612.008 856.523 612.326 857.482 612.3H904.232C905.969 612.582 907.545 613.481 908.673 614.832C909.8 616.183 910.402 617.896 910.369 619.655V650.07C910.21 651.755 909.487 653.336 908.315 654.557C907.143 655.779 905.593 656.566 903.916 656.794H830.09C830.09 656.794 825.577 656.297 824.855 652.778V645.106C825.136 643.896 825.852 642.831 826.867 642.115C827.883 641.399 829.126 641.082 830.361 641.226H878.33C879.19 641.2 880.017 640.882 880.673 640.324C881.329 639.767 881.776 639.002 881.94 638.157V631.749C881.779 630.841 881.318 630.014 880.631 629.4C879.943 628.786 879.069 628.422 878.149 628.365H832.076C830.285 628.148 828.621 627.329 827.358 626.041C826.095 624.754 825.308 623.074 825.126 621.28V591.181C825.166 589.323 825.856 587.538 827.076 586.136C828.296 584.734 829.97 583.805 831.805 583.51" fill="white"/>
<path d="M1167.4 630.304H1152.38C1147.19 630.304 1147.86 634.32 1147.86 634.32V637.344C1147.85 637.848 1147.72 638.341 1147.48 638.787C1147.25 639.233 1146.92 639.619 1146.51 639.916C1146.15 640.287 1145.71 640.575 1145.23 640.762C1144.75 640.949 1144.23 641.03 1143.71 640.999H1122.91C1122.4 641.046 1121.88 640.972 1121.4 640.784C1120.93 640.596 1120.5 640.299 1120.16 639.916C1119.73 639.594 1119.4 639.176 1119.17 638.698C1118.94 638.219 1118.83 637.693 1118.85 637.163V604.176C1118.85 602.993 1119.32 601.858 1120.16 601.018C1120.5 600.624 1120.92 600.31 1121.4 600.099C1121.87 599.889 1122.39 599.786 1122.91 599.799H1143.8C1146.51 599.799 1147.95 601.198 1147.95 604.312V607.2C1147.95 607.2 1147.1 611.216 1152.15 610.945H1167.18C1167.18 610.945 1172.05 610.945 1172.05 607.2V591.135C1172.1 589.162 1171.37 587.248 1170.02 585.81C1168.63 584.494 1166.79 583.766 1164.88 583.78H1101.7C1100.78 583.772 1099.87 583.948 1099.01 584.297C1098.16 584.645 1097.39 585.16 1096.74 585.81C1096.05 586.512 1095.5 587.345 1095.14 588.259C1094.77 589.173 1094.6 590.151 1094.61 591.135V650.205C1094.63 652.103 1095.39 653.918 1096.74 655.259C1097.37 655.926 1098.15 656.452 1099 656.802C1099.86 657.152 1100.78 657.318 1101.7 657.289H1164.88C1165.83 657.319 1166.77 657.153 1167.66 656.804C1168.54 656.455 1169.34 655.929 1170.02 655.259C1171.32 653.899 1172.05 652.088 1172.05 650.205V635.584C1172.77 630.439 1167.54 630.304 1167.54 630.304" fill="white"/>
<path d="M1711.78 599.8H1743.37L1731.23 612.616L1746.03 626.65L1775.14 596.596C1776.16 595.413 1776.68 593.873 1776.58 592.31C1776.62 591.236 1776.43 590.167 1776.02 589.172C1775.62 588.177 1775.01 587.279 1774.24 586.533C1773.47 585.655 1772.51 584.954 1771.45 584.479C1770.38 584.003 1769.22 583.765 1768.06 583.781H1711.78C1710.88 583.612 1709.95 583.677 1709.09 583.97C1708.21 584.262 1707.43 584.772 1706.82 585.45C1705.56 587.299 1705.02 589.551 1705.33 591.768C1705.17 594.105 1705.84 596.424 1707.23 598.311C1707.79 598.914 1708.51 599.365 1709.29 599.625C1710.08 599.885 1710.92 599.945 1711.74 599.8" fill="white"/>
<path d="M1258.43 585.811C1257.76 585.153 1256.96 584.634 1256.08 584.285C1255.21 583.937 1254.27 583.765 1253.33 583.78H1190.15C1188.28 583.783 1186.49 584.511 1185.14 585.811C1184.46 586.515 1183.93 587.349 1183.57 588.263C1183.21 589.178 1183.04 590.155 1183.07 591.136V650.205C1183.07 652.098 1183.81 653.914 1185.14 655.259C1185.8 655.919 1186.58 656.44 1187.44 656.789C1188.3 657.138 1189.23 657.308 1190.15 657.29H1253.33C1254.27 657.327 1255.22 657.165 1256.1 656.815C1256.97 656.465 1257.77 655.935 1258.43 655.259C1259.12 654.61 1259.66 653.827 1260.03 652.957C1260.41 652.088 1260.6 651.151 1260.59 650.205V591.542C1260.63 590.552 1260.45 589.567 1260.08 588.65C1259.71 587.733 1259.14 586.904 1258.43 586.217M1236.32 637.119C1236.37 637.654 1236.28 638.194 1236.06 638.684C1235.83 639.175 1235.49 639.599 1235.05 639.917C1234.69 640.285 1234.25 640.572 1233.77 640.758C1233.29 640.945 1232.77 641.027 1232.26 641H1211.27C1210.75 641.018 1210.24 640.931 1209.75 640.743C1209.27 640.556 1208.83 640.272 1208.46 639.909C1208.08 639.547 1207.79 639.112 1207.59 638.633C1207.39 638.153 1207.3 637.638 1207.3 637.119V604.177C1207.32 603.007 1207.73 601.878 1208.47 600.973C1209.22 600.239 1210.22 599.819 1211.27 599.8H1232.26C1233.3 599.819 1234.3 600.239 1235.05 600.973C1235.48 601.387 1235.81 601.887 1236.03 602.44C1236.25 602.992 1236.34 603.584 1236.32 604.177V637.119Z" fill="white"/>
<path d="M1273.82 599.802C1276.67 599.802 1278.33 600.885 1278.33 603.006V650.208C1278.31 651.132 1278.49 652.051 1278.85 652.901C1279.22 653.75 1279.77 654.51 1280.46 655.126C1281.09 655.746 1281.85 656.23 1282.68 656.548C1283.51 656.866 1284.4 657.012 1285.28 656.976H1295.39C1296.32 657.017 1297.24 656.874 1298.1 656.557C1298.97 656.239 1299.77 655.753 1300.45 655.126C1301.12 654.502 1301.66 653.74 1302.02 652.892C1302.37 652.043 1302.55 651.128 1302.52 650.208V604.179C1302.52 601.201 1303.88 599.667 1306.58 599.667H1320.12C1322.96 599.667 1324.27 601.066 1324.27 604.179V650.208C1324.26 651.118 1324.44 652.021 1324.77 652.865C1325.12 653.709 1325.62 654.477 1326.26 655.126C1327.64 656.345 1329.43 657.004 1331.27 656.976H1341.29C1343.14 657.041 1344.93 656.377 1346.29 655.126C1346.98 654.504 1347.52 653.744 1347.89 652.895C1348.25 652.047 1348.43 651.131 1348.42 650.208V603.006C1348.46 602.528 1348.6 602.064 1348.83 601.642C1349.06 601.221 1349.37 600.849 1349.74 600.55C1350.12 600.25 1350.55 600.03 1351.01 599.902C1351.47 599.773 1351.96 599.739 1352.43 599.802H1365.74C1366.34 599.715 1366.96 599.774 1367.53 599.976C1368.1 600.177 1368.61 600.514 1369.02 600.958C1369.44 601.401 1369.74 601.939 1369.89 602.523C1370.06 603.108 1370.07 603.723 1369.94 604.315V650.208C1369.91 651.125 1370.07 652.039 1370.42 652.888C1370.77 653.736 1371.3 654.5 1371.97 655.126C1373.41 656.403 1375.29 657.067 1377.21 656.976H1387.22C1388.09 656.978 1388.96 656.801 1389.76 656.456C1390.56 656.112 1391.29 655.607 1391.88 654.974C1392.48 654.34 1392.95 653.59 1393.25 652.771C1393.55 651.951 1393.68 651.079 1393.63 650.208V591.138C1393.68 590.154 1393.52 589.172 1393.16 588.254C1392.81 587.336 1392.25 586.505 1391.56 585.813C1390.91 585.149 1390.12 584.626 1389.26 584.276C1388.4 583.927 1387.48 583.759 1386.55 583.783H1343.05C1342.2 583.793 1341.37 583.97 1340.59 584.303C1339.82 584.636 1339.12 585.118 1338.53 585.723C1337.85 586.277 1337.28 586.961 1336.86 587.736C1336.45 588.51 1336.19 589.36 1336.1 590.236C1335.94 588.519 1335.18 586.916 1333.93 585.723C1332.73 584.519 1331.11 583.823 1329.42 583.783H1297.83C1296.11 583.847 1294.48 584.524 1293.22 585.692C1291.96 586.859 1291.16 588.44 1290.97 590.145C1290.91 589.277 1290.67 588.431 1290.28 587.655C1289.88 586.88 1289.34 586.192 1288.67 585.633C1287.34 584.375 1285.58 583.68 1283.75 583.692H1274.18C1273.7 583.674 1273.21 583.755 1272.75 583.931C1272.29 584.107 1271.88 584.374 1271.53 584.716C1271.18 585.058 1270.9 585.468 1270.71 585.92C1270.52 586.372 1270.43 586.858 1270.44 587.348V595.29C1270.42 596.365 1270.79 597.41 1271.48 598.237C1272.17 599.064 1273.12 599.619 1274.18 599.802" fill="white"/>
<path d="M1407.58 599.804C1410.47 599.804 1412.09 600.887 1412.09 603.008V650.209C1412.09 651.122 1412.27 652.026 1412.62 652.871C1412.97 653.715 1413.48 654.482 1414.12 655.128C1415.48 656.359 1417.26 657.022 1419.09 656.978H1429.11C1430.97 657.045 1432.78 656.381 1434.16 655.128C1434.84 654.503 1435.37 653.742 1435.73 652.893C1436.09 652.045 1436.26 651.13 1436.24 650.209V604.181C1436.24 601.203 1437.68 599.668 1440.34 599.668H1453.88C1454.48 599.592 1455.08 599.659 1455.65 599.864C1456.22 600.069 1456.73 600.406 1457.14 600.847C1457.55 601.288 1457.85 601.82 1458.01 602.4C1458.18 602.98 1458.2 603.59 1458.08 604.181V650.209C1458.06 651.121 1458.23 652.027 1458.56 652.872C1458.91 653.718 1459.42 654.485 1460.06 655.128C1461.43 656.344 1463.2 657.003 1465.03 656.978H1474.95C1476.79 656.997 1478.58 656.339 1479.96 655.128C1480.6 654.479 1481.11 653.711 1481.45 652.867C1481.79 652.022 1481.96 651.119 1481.95 650.209V603.008C1482 602.523 1482.15 602.055 1482.38 601.629C1482.62 601.204 1482.94 600.83 1483.32 600.53C1483.7 600.231 1484.15 600.013 1484.61 599.888C1485.08 599.763 1485.58 599.734 1486.05 599.804H1499.28C1499.88 599.71 1500.49 599.767 1501.06 599.968C1501.63 600.168 1502.14 600.508 1502.54 600.955C1502.95 601.402 1503.24 601.943 1503.39 602.53C1503.54 603.116 1503.53 603.73 1503.38 604.316V650.209C1503.39 651.134 1503.58 652.048 1503.96 652.894C1504.33 653.741 1504.87 654.501 1505.55 655.128C1506.24 655.756 1507.04 656.243 1507.92 656.56C1508.79 656.878 1509.72 657.02 1510.65 656.978H1520.76C1522.53 657.017 1524.25 656.352 1525.54 655.128C1526.2 654.492 1526.71 653.726 1527.06 652.879C1527.4 652.031 1527.56 651.122 1527.52 650.209V591.14C1527.58 590.159 1527.43 589.177 1527.08 588.259C1526.73 587.341 1526.19 586.508 1525.49 585.815C1524.14 584.538 1522.35 583.814 1520.49 583.784H1476.76C1475.06 583.83 1473.45 584.524 1472.25 585.725C1470.99 586.936 1470.15 588.517 1469.85 590.237C1469.72 588.526 1468.97 586.922 1467.73 585.725C1467.1 585.096 1466.34 584.601 1465.52 584.268C1464.69 583.935 1463.8 583.771 1462.9 583.784H1431.32C1430.47 583.782 1429.64 583.953 1428.86 584.287C1428.09 584.621 1427.39 585.11 1426.8 585.725C1425.53 586.9 1424.74 588.51 1424.59 590.237C1424.53 589.369 1424.3 588.522 1423.9 587.747C1423.51 586.972 1422.96 586.284 1422.29 585.725C1420.97 584.482 1419.23 583.788 1417.42 583.784H1407.76C1407.27 583.758 1406.79 583.835 1406.33 584.009C1405.87 584.184 1405.46 584.451 1405.11 584.795C1404.76 585.139 1404.49 585.552 1404.3 586.007C1404.12 586.462 1404.04 586.95 1404.06 587.439V595.381C1404.06 595.381 1404.06 599.443 1407.76 599.894" fill="white"/>
<path d="M1769.13 641.125H1732.13L1737.86 635.394L1723.28 636.161V621.27L1700.72 644.69C1699.64 645.947 1699.05 647.547 1699.05 649.202C1699.06 651.304 1699.91 653.314 1701.4 654.798C1702.12 655.587 1703.01 656.212 1704 656.632C1704.99 657.052 1706.05 657.258 1707.13 657.235H1768.5C1769.5 657.385 1770.52 657.331 1771.5 657.075C1772.47 656.819 1773.39 656.366 1774.19 655.746C1774.88 654.828 1775.39 653.78 1775.67 652.665C1775.96 651.549 1776.02 650.387 1775.85 649.247V646.54C1775.85 640.222 1768.95 641.17 1768.95 641.17" fill="white"/>
<path d="M1611.99 632.154H1596.02C1592.05 632.154 1592.64 635.629 1592.64 635.629V638.562C1592.23 639.961 1592.64 639.735 1591.55 640.457C1590.47 641.179 1589.52 641.044 1588.48 641.044H1567.59C1566.51 641.083 1565.45 640.694 1564.66 639.961C1564.22 639.643 1563.88 639.218 1563.66 638.728C1563.44 638.238 1563.34 637.699 1563.39 637.163V624.573H1609.29C1611.26 624.505 1613.15 623.701 1614.57 622.317C1615.28 621.671 1615.84 620.883 1616.22 620.004C1616.6 619.125 1616.79 618.175 1616.78 617.217V591.135C1616.81 590.148 1616.62 589.167 1616.24 588.257C1615.86 587.346 1615.29 586.527 1614.57 585.855C1613.12 584.54 1611.24 583.802 1609.29 583.779H1546.34C1545.42 583.779 1544.51 583.963 1543.67 584.319C1542.82 584.675 1542.05 585.198 1541.42 585.855C1540.72 586.546 1540.16 587.368 1539.78 588.274C1539.41 589.18 1539.21 590.152 1539.21 591.135V650.204C1539.22 651.152 1539.41 652.088 1539.79 652.957C1540.18 653.825 1540.73 654.608 1541.42 655.258C1542.05 655.918 1542.82 656.439 1543.67 656.789C1544.51 657.138 1545.42 657.308 1546.34 657.289H1609.29C1611.24 657.305 1613.13 656.579 1614.57 655.258C1615.28 654.627 1615.85 653.849 1616.23 652.975C1616.61 652.103 1616.8 651.157 1616.78 650.204V635.584C1616.78 632.109 1611.99 632.109 1611.99 632.109M1563.39 604.176C1563.39 601.198 1564.7 599.664 1567.59 599.664H1588.48C1591.24 599.664 1592.64 601.062 1592.64 604.176V606.658C1592.64 609.546 1591.24 611.171 1588.48 611.171H1567.59C1564.7 611.171 1563.39 609.636 1563.39 606.658V604.176Z" fill="white"/>
<path d="M1726.26 632.605L1726.53 601.604L1757.21 630.8L1726.26 632.605Z" fill="white"/>
<path d="M1785.05 559.982C1787.22 560.036 1789.35 560.592 1791.28 561.607C1793.22 562.605 1794.79 564.182 1795.79 566.12C1796.96 568 1797.57 570.176 1797.55 572.392C1797.61 574.613 1797 576.799 1795.79 578.664C1794.72 580.547 1793.16 582.106 1791.28 583.177C1789.36 584.216 1787.21 584.76 1785.03 584.76C1782.85 584.76 1780.7 584.216 1778.78 583.177C1776.92 582.08 1775.36 580.528 1774.26 578.664C1773.1 576.78 1772.49 574.607 1772.5 572.392C1772.53 570.182 1773.13 568.017 1774.26 566.12C1775.28 564.198 1776.86 562.626 1778.78 561.607C1780.64 560.6 1782.71 560.044 1784.82 559.982M1784.82 562.058C1783.05 562.096 1781.3 562.544 1779.72 563.367C1778.18 564.324 1776.89 565.649 1775.98 567.223C1775.06 568.797 1774.55 570.573 1774.49 572.392C1774.43 574.257 1774.93 576.098 1775.93 577.672C1776.79 579.29 1778.11 580.612 1779.72 581.462C1781.25 582.411 1783.03 582.883 1784.82 582.816C1786.67 582.91 1788.5 582.438 1790.06 581.462C1791.7 580.58 1793.07 579.27 1794.03 577.672C1794.88 576.045 1795.3 574.227 1795.25 572.392C1795.32 570.587 1794.86 568.802 1793.94 567.248C1793.08 565.559 1791.71 564.185 1790.01 563.322C1788.42 562.472 1786.64 562.023 1784.82 562.013M1779.41 579.296V566.029H1783.92C1785.59 566.029 1786.76 566.029 1787.44 566.029C1788.1 566.424 1788.68 566.928 1789.16 567.518C1789.58 568.059 1789.81 568.728 1789.79 569.414C1789.8 569.914 1789.69 570.41 1789.48 570.863C1789.27 571.316 1788.96 571.716 1788.57 572.031C1788.25 572.434 1787.83 572.756 1787.36 572.967C1786.89 573.179 1786.38 573.276 1785.86 573.249C1786.32 573.438 1786.75 573.664 1787.17 573.926C1787.83 574.78 1788.42 575.686 1788.93 576.634L1790.64 579.206H1787.98L1786.9 577.085C1786.23 575.996 1785.46 574.969 1784.6 574.017C1784.08 573.668 1783.47 573.494 1782.84 573.52H1781.85V579.206L1779.41 579.296ZM1781.57 571.715H1784.24C1785.13 571.808 1786.02 571.635 1786.81 571.219C1787.05 571.045 1787.24 570.812 1787.35 570.543C1787.48 570.273 1787.52 569.977 1787.49 569.684C1787.49 569.307 1787.39 568.936 1787.22 568.601C1786.94 568.26 1786.56 568.022 1786.13 567.925C1785.46 567.761 1784.76 567.67 1784.06 567.654H1781.85L1781.57 571.715Z" fill="white"/>
<path d="M1628.35 599.803C1631.2 599.803 1632.86 600.886 1632.86 603.006V650.208C1632.85 652.037 1633.54 653.802 1634.81 655.127C1636.11 656.371 1637.83 657.08 1639.63 657.112H1649.79C1650.74 657.148 1651.69 656.991 1652.58 656.65C1653.47 656.308 1654.29 655.79 1654.98 655.127C1656.19 653.786 1656.84 652.02 1656.78 650.208V604.18C1656.78 601.201 1658.18 599.667 1660.89 599.667H1667.12C1668.17 599.694 1669.17 600.131 1669.91 600.886C1670.63 601.778 1671.02 602.897 1671 604.044V605.669C1670.88 606.132 1670.89 606.615 1671 607.077C1671.11 607.539 1671.34 607.967 1671.65 608.325C1671.97 608.683 1672.36 608.96 1672.81 609.134C1673.25 609.308 1673.73 609.373 1674.2 609.324H1691.89C1691.89 609.324 1695.5 610.046 1695.23 605.669V591.138C1695.26 590.16 1695.08 589.186 1694.72 588.278C1694.35 587.37 1693.8 586.546 1693.11 585.859C1692.44 585.174 1691.64 584.635 1690.75 584.278C1689.87 583.92 1688.92 583.752 1687.96 583.783H1651.86C1651.01 583.792 1650.18 583.972 1649.4 584.314C1648.63 584.655 1647.93 585.15 1647.35 585.768C1646.67 586.324 1646.11 587.009 1645.7 587.784C1645.29 588.559 1645.04 589.407 1644.96 590.281C1644.95 589.406 1644.75 588.544 1644.36 587.761C1643.97 586.978 1643.4 586.296 1642.7 585.768C1641.51 584.555 1639.89 583.845 1638.19 583.783H1628.35C1627.86 583.764 1627.37 583.847 1626.91 584.026C1626.45 584.204 1626.03 584.476 1625.68 584.822C1625.33 585.169 1625.05 585.584 1624.87 586.042C1624.68 586.5 1624.59 586.99 1624.61 587.483V595.38C1624.61 595.38 1624.61 599.577 1628.35 599.893V599.803Z" fill="white"/>
</g>
<path d="M0.5 283H83.5V399H0.5V283Z" fill="#13B156"/>
<path d="M0.5 0H276.362V92.4138H0.5V0Z" fill="#7D59E2"/>
<path d="M0 141L247 141V234H0V141Z" fill="#1583DF"/>
<defs>
<radialGradient id="paint0_radial_17140_5964" cx="0" cy="0" r="1" gradientTransform="matrix(1209.5 1027.31 -2362.98 2781.67 462.405 -385.591)" gradientUnits="userSpaceOnUse">
<stop stop-color="#8C68E5"/>
<stop offset="0.610577" stop-color="#2251A3"/>
<stop offset="1" stop-color="#2A439B"/>
</radialGradient>
<radialGradient id="paint1_radial_17140_5964" cx="0" cy="0" r="1" gradientTransform="matrix(1209.5 1027.31 -2362.98 2781.67 462.404 -385.592)" gradientUnits="userSpaceOnUse">
<stop stop-color="#8C68E5"/>
<stop offset="0.610577" stop-color="#2251A3"/>
<stop offset="1" stop-color="#2A439B"/>
</radialGradient>
<radialGradient id="paint2_radial_17140_5964" cx="0" cy="0" r="1" gradientTransform="matrix(1209.5 1027.31 -2362.98 2781.67 462.404 -385.59)" gradientUnits="userSpaceOnUse">
<stop stop-color="#8C68E5"/>
<stop offset="0.610577" stop-color="#2251A3"/>
<stop offset="1" stop-color="#2A439B"/>
</radialGradient>
<radialGradient id="paint3_radial_17140_5964" cx="0" cy="0" r="1" gradientTransform="matrix(1209.5 1027.31 -2362.98 2781.67 462.406 -385.591)" gradientUnits="userSpaceOnUse">
<stop stop-color="#8C68E5"/>
<stop offset="0.610577" stop-color="#2251A3"/>
<stop offset="1" stop-color="#2A439B"/>
</radialGradient>
<radialGradient id="paint4_radial_17140_5964" cx="0" cy="0" r="1" gradientTransform="matrix(1209.5 1027.31 -2362.98 2781.67 462.402 -385.59)" gradientUnits="userSpaceOnUse">
<stop stop-color="#8C68E5"/>
<stop offset="0.610577" stop-color="#2251A3"/>
<stop offset="1" stop-color="#2A439B"/>
</radialGradient>
<radialGradient id="paint5_radial_17140_5964" cx="0" cy="0" r="1" gradientTransform="matrix(1209.5 1027.31 -2362.98 2781.67 462.405 -385.591)" gradientUnits="userSpaceOnUse">
<stop stop-color="#8C68E5"/>
<stop offset="0.610577" stop-color="#2251A3"/>
<stop offset="1" stop-color="#2A439B"/>
</radialGradient>
</defs>
</svg>
